<svg width="1203" height="790" viewBox="0 0 1203 790" fill="none" xmlns="http://www.w3.org/2000/svg">
<g clip-path="url(#clip0)">
<rect width="1202" height="790" transform="translate(0.244873)" fill="#F5F7F9"/>
<path fill-rule="evenodd" clip-rule="evenodd" d="M13.2708 -158.651C103.099 -214.743 197.67 -134.956 289.702 -105.844C416.708 -65.6679 600.464 -88.1703 642.684 40.4503C685.013 169.405 563.61 315.6 464.268 425.96C385.295 513.692 271.59 530.731 164.758 571.383C48.5047 615.62 -94.9735 748.977 -176.876 669.93C-263.97 585.872 -145.746 423.785 -123.13 293.533C-113.019 235.295 -99.8239 183.899 -82.5379 126.595C-52.5109 27.052 -75.5279 -103.203 13.2708 -158.651Z" fill="#C491FF"/>
<path fill-rule="evenodd" clip-rule="evenodd" d="M885.113 358.046C975.988 307.002 1066.16 365.565 1155.83 383.299C1279.57 407.773 1461.81 377.965 1498.38 479.335C1535.04 580.967 1409.43 706.888 1307.01 802.429C1225.59 878.38 1112.7 899.345 1005.66 938.975C889.175 982.1 742.288 1099.03 664.594 1040.27C581.976 977.776 705.079 839.201 732.565 732.417C744.854 684.672 759.914 642.266 779.246 594.823C812.828 512.41 795.279 408.506 885.113 358.046Z" fill="url(#paint0_linear)"/>
<path d="M1157.75 31.0872C1147.8 31.0872 1139.75 38.4235 1139.75 47.4943C1139.75 59.7996 1157.75 77.9646 1157.75 77.9646C1157.75 77.9646 1175.75 59.7996 1175.75 47.4943C1175.75 38.4235 1167.7 31.0872 1157.75 31.0872ZM1157.75 53.354C1154.2 53.354 1151.32 50.7288 1151.32 47.4943C1151.32 44.2598 1154.2 41.6346 1157.75 41.6346C1161.3 41.6346 1164.18 44.2598 1164.18 47.4943C1164.18 50.7288 1161.3 53.354 1157.75 53.354Z" fill="#5BE7C4"/>
</g>
<defs>
<linearGradient id="paint0_linear" x1="982.361" y1="322.732" x2="1177.35" y2="912.757" gradientUnits="userSpaceOnUse">
<stop stop-color="#D6B2FF"/>
<stop offset="1" stop-color="#BD83FF"/>
</linearGradient>
<clipPath id="clip0">
<rect width="1202" height="790" fill="white" transform="translate(0.244873)"/>
</clipPath>
</defs>
</svg>
